HIERARCHY
ROOT HipCenter
{
    OFFSET 0.0 0.0 -0.0
    CHANNELS 6 Xposition Yposition Zposition Zrotation Xrotation Yrotation
    JOINT Spine
    {
        OFFSET 0.0 11.759238243103027 0.0
        CHANNELS 3 Zrotation Xrotation Yrotation
        JOINT ShoulderCenter
        {
            OFFSET 0.0 32.58971405029297 0.0
            CHANNELS 3 Zrotation Xrotation Yrotation
            JOINT LeftShoulder
            {
                OFFSET 20.107494354248047 0.0 0.0
                CHANNELS 3 Zrotation Xrotation Yrotation
                JOINT LeftElbow
                {
                    OFFSET 30.087493896484375 0.0 0.0
                    CHANNELS 3 Zrotation Xrotation Yrotation
                    JOINT LeftWrist
                    {
                        OFFSET 30.162750244140625 0.0 0.0
                        CHANNELS 3 Zrotation Xrotation Yrotation
                        JOINT LeftHand
                        {
                            OFFSET 3.6926589012145996 0.0 0.0
                            CHANNELS 3 Zrotation Xrotation Yrotation
                            End Site
                            {
                                OFFSET 1.4770636558532715 0.0 0.0
                            }
                        }
                    }
                }
            }
            JOINT RightShoulder
            {
                OFFSET -20.107494354248047 0.0 0.0
                CHANNELS 3 Zrotation Xrotation Yrotation
                JOINT RightElbow
                {
                    OFFSET -30.087493896484375 0.0 0.0
                    CHANNELS 3 Zrotation Xrotation Yrotation
                    JOINT RightWrist
                    {
                        OFFSET -30.162750244140625 0.0 0.0
                        CHANNELS 3 Zrotation Xrotation Yrotation
                        JOINT RightHand
                        {
                            OFFSET -3.6926589012145996 0.0 0.0
                            CHANNELS 3 Zrotation Xrotation Yrotation
                            End Site
                            {
                                OFFSET -1.4770636558532715 0.0 0.0
                            }
                        }
                    }
                }
            }
            End Site
            {
                OFFSET 0.0 13.035886764526367 0.0
            }
        }
    }
    JOINT LeftHip
    {
        OFFSET 13.975919723510742 0.0 0.0
        CHANNELS 3 Zrotation Xrotation Yrotation
        JOINT LeftKnee
        {
            OFFSET 0.0 -42.941261291503906 0.0
            CHANNELS 3 Zrotation Xrotation Yrotation
            JOINT LeftAnkle
            {
                OFFSET 0.0 -41.82294464111328 0.0
                CHANNELS 3 Zrotation Xrotation Yrotation
                JOINT LeftFoot
                {
                    OFFSET 0.0 -12.520736694335938 0.0
                    CHANNELS 3 Zrotation Xrotation Yrotation
                    End Site
                    {
                        OFFSET 0.0 0.0 5.008294105529785
                    }
                }
            }
        }
    }
    JOINT RightHip
    {
        OFFSET -13.975919723510742 0.0 0.0
        CHANNELS 3 Zrotation Xrotation Yrotation
        JOINT RightKnee
        {
            OFFSET 0.0 -42.941261291503906 0.0
            CHANNELS 3 Zrotation Xrotation Yrotation
            JOINT RightAnkle
            {
                OFFSET 0.0 -41.82294464111328 0.0
                CHANNELS 3 Zrotation Xrotation Yrotation
                JOINT RightFoot
                {
                    OFFSET 0.0 -12.520736694335938 0.0
                    CHANNELS 3 Zrotation Xrotation Yrotation
                    End Site
                    {
                        OFFSET 0.0 0.0 5.008294105529785
                    }
                }
            }
        }
    }
}
MOTION
Frames: 5
Frame Time: 0.03333333333333333
-8.0 -1.0 -16.899999618530273 -2.447046420984989 5.850705069132473 26.048507460405798 -7.337132515388152 3.5872001952174517 0.3339670839856449 -4.96387494966461e-07 1.9663607572690506e-07 16.836429816269295 128.82398735805458 35.22102831101379 175.77454082947696 6.975348135298465e-07 1.1255278449606242e-06 55.21193971221854 -1.1719264311967694e-05 -86.05800217361771 28.90267885120664 3.1805546814635168e-15 3.9756933518293955e-16 -1.5902773407317584e-15 -115.50521488064294 5.62717697603715 148.29449991269476 -2.579484355638607e-06 4.420590416007413e-06 -51.637207132650694 4.502045228667504e-06 -16.89385672575461 -27.59282846138628 -3.1805546814635168e-15 8.827812596100317e-32 -3.1805546814635168e-15 -0.25288866250002284 -27.27860184314912 9.227853274568917 9.959753214635192 39.72214282280538 -48.506968787879565 86.26105524028395 -60.78913968344824 132.13530217536456 -6.361109362927033e-15 -6.3611093629270335e-15 9.54166404439055e-15 -2.1583172247064075 -18.05146418211496 2.8836969788196116 12.09527814935962 36.49123292358017 27.210348473230404 -98.18676742987552 -39.342050249477786 -142.83955402254367 3.1805546814635168e-15 -6.3611093629270335e-15 6.3611093629270335e-15
-7.400000095367432 -1.3000000715255737 -16.799999237060547 -1.9580678769119242 5.367869174870104 26.60832007899536 -6.7401927193725255 4.315803099804792 0.33558222426113343 -7.756211962948855e-07 -7.092310449473182e-07 14.877641232925903 127.60371420725863 33.64897320969401 177.3928627222037 3.635992956241217e-06 -4.0431350226837095e-07 56.3705242209689 -3.639551903740485e-06 -86.26924675747837 28.111225063152197 0.0 0.0 -2.3854160110976376e-15 -116.94297394894824 7.69740158799973 151.0314766875648 4.711710542273286e-06 3.711510138968029e-06 -52.37598457671733 1.0053319541684243e-06 -15.882478250348017 -28.228577059799736 0.0 0.0 0.0 -0.7811877144772081 -26.955136920384103 9.300671455198659 8.097935359987169 41.00825282010048 -47.31982972980582 86.04547718194434 -57.32432979451139 131.06728063497505 4.770832022195275e-15 1.3241718894150476e-31 3.1805546814635168e-15 -2.8134953917759464 -17.549147228831885 2.82926197395392 12.837583147447116 37.30148951082442 26.802518261196436 -98.51952684529566 -38.87982431031425 -142.35807289132973 6.3611093629270335e-15 -4.770832022195275e-15 2.648343778830095e-31
-6.800000190734863 -1.600000023841858 -16.69999885559082 -2.4470484223956546 4.880760028088156 27.244321022849807 -5.157311363235087 3.913188675493654 0.23592599446947374 3.17754550261376e-07 -4.5227490310355535e-07 12.88531428474545 126.97804162853015 32.2238288233403 178.8508547884996 -1.7954250590500488e-06 4.3079946932531724e-06 57.76498590771563 -1.7290011342298153e-05 -85.00050791318084 25.17501616753637 3.4483642953516864e-34 -9.93923337957349e-17 3.975693351829396e-16 -117.99885038511171 9.802774605704673 154.81081109648719 -2.759883955346838e-06 -3.57848207687565e-06 -53.77110527146669 4.7222003598992184e-07 -19.120466293975433 -27.5257457512187 -6.3611093629270335e-15 0.0 0.0 -0.22126218586612112 -26.680905426358958 8.346454645688398 4.875535988714157 41.58984902416049 -44.08489068507894 86.40566119428082 -55.54087793237971 129.81082073793084 -7.951386703658792e-16 -2.2069531490250793e-32 3.1805546814635168e-15 -2.724195487403905 -17.73202527711408 3.1943652067229427 13.860643730192054 38.826652132312574 27.726186939916207 -100.23185045909464 -36.41440573411388 -144.97470288780892 6.3611093629270335e-15 -4.770832022195275e-15 -6.3611093629270335e-15
-5.900000095367432 -2.0 -16.599998474121094 -1.9580676719680645 3.909281801717606 29.014477567667893 -4.080672812469311 4.243152884195233 0.19143601485403333 -2.562132128585623e-07 1.5470749631800194e-08 10.110279975662442 125.60385497411113 30.39232896000293 -178.6735093109756 5.120601560032586e-06 -1.9126580849295517e-06 58.89004914988981 3.75728450877201e-05 -88.72109725212223 27.26125631952243 7.95138670365879e-16 -2.758691436281349e-33 -3.975693351829395e-16 -118.83731731323783 12.944980118752552 158.8318003491186 2.3908281434392617e-07 -7.698662967982538e-07 -54.86232270163164 -3.870806215042331e-06 -17.498843889050764 -27.568689187202672 0.0 0.0 1.2722218725854065e-14 -0.9989918025144541 -25.415233272304203 6.921411674561233 4.119823604238345 41.88937339919153 -42.75283716033595 88.51238180330225 -57.502455825126646 130.36050506576026 -7.951386703658796e-16 -6.361109362927035e-15 -3.975693351829397e-15 -3.6461638364201656 -17.250732319731032 2.815421005349222 15.373199061367703 41.13867914510069 28.146615132782376 -101.07636151108382 -34.242915853971915 -145.63095495354696 -3.1805546814635168e-15 6.3611093629270335e-15 -3.1805546814635168e-15
-5.0 -2.4000000953674316 -16.599998474121094 -1.4688015600515432 3.422743037089729 30.80310452906491 -3.475023844095494 4.033503582250626 0.1870732189255412 -5.234794530020608e-08 -1.9058086621609745e-07 7.091859753951803 124.9271284579574 27.519578847916474 -175.7694982848888 4.834676011189795e-07 -2.6271533365536887e-06 59.865150150463975 179.99998755237016 -88.81803743734145 -151.4301301525822 1.616420763446103e-35 1.2424041724466861e-17 -1.4908850069360232e-16 -119.90147180249149 15.99320009830103 162.71580518747615 -9.386129717825521e-07 2.9546179431390252e-06 -55.90035914080876 6.748445459455934e-06 -16.041084416827967 -27.369893144354357 0.0 0.0 0.0 -1.6877277486322717 -24.677530751290696 4.872459904749977 2.2602646562025845 42.1773547924972 -39.88381906983799 88.20336367141117 -60.600640369606595 127.21647061503171 -7.951386703658792e-15 -7.156248033292914e-15 -4.770832022195276e-15 -5.281373882507063 -18.172292162404172 1.425321252231402 17.121731686668348 45.55663066490382 30.366443132005163 -99.66051608432961 -30.95681333489223 -144.73398438568057 0.0 0.0 3.1805546814635168e-15
